<svg viewBox="0 0 360 360" xmlns="http://www.w3.org/2000/svg"><path d="m180 0a180 180 0 1 0 180 180 180 180 0 0 0 -180-180zm-59 106.58v.09l59.12 2.55c27.54 0 58.91-2.55 58.91-2.55l.82.44v62.4a2.47 2.47 0 0 0 0 4.69v4.51h-11.07s-8.31-32.71-26.72-32.71c-11.47 0-14.47 10.66-14.47 20.62v2.05l1.61 1v9.81l-1.93.82-.27 21.5c0 7.94.06 14.37.12 15-.82.27-1.7.45-2.67.67h-.26c-1.34.12-2.76.35-4.28.35a24.27 24.27 0 0 1 -4.1-.32q.58-.61 1.23-1.17c.19-.18.42-.36.64-.59a72.78 72.78 0 0 0 7.92-8.44c0-.72 0-1.23 0-1.23a68.86 68.86 0 0 1 -7.86 8.38c-.25.24-.5.45-.73.68-.14.1-.28.35-.41.35a7.3 7.3 0 0 0 -1.55 1.9 19.61 19.61 0 0 1 -2.14-.55c.06-.31.1-6.94.12-15.12l-.27-21.48-1.93-.82v-9.81l1.61-1v-2c0-10-3-20.65-14.44-20.65-18.4 0-26.75 32.72-26.75 32.72h-11.1v-4.57a2.48 2.48 0 0 0 0-4.57v-62.53l.85-.44zm2.16 3.72.77 51 1.58-51zm111.45 0 .73 51 1.61-51zm-97.47.71c1.08 1.13 3.86 4.06 4.19 4.48.66.9 1.3 1.72 2 2.61a2.71 2.71 0 0 1 .59 1.75c0 .27-.11.27-.27.27a6.15 6.15 0 0 1 -2.25.26c-1.14 0-2.27-.2-3.4-.2a21.85 21.85 0 0 1 -3.52-.44c-2.34-.48-7.44-3.82-7.47-4.25v2.61l5.28 2.75-5 2.17-.14 2.28a47.92 47.92 0 0 1 5.68-3 18.69 18.69 0 0 1 4.87-.41 5.91 5.91 0 0 1 2 .24h.17c.79 0 1.56.2 2.35.2a15.81 15.81 0 0 1 2.9.27 8.16 8.16 0 0 1 2.43.5 22.9 22.9 0 0 1 2.05 1.11 29.8 29.8 0 0 0 3.11 1.52c.73.32 1.44.74 2.19 1 1.19.39 2.36.87 3.55 1.23 1.5.52 3.07.89 4.54 1.49a42.58 42.58 0 0 1 4.69 1.76c6.17 3.33 10.59 11.56 11.66 16.35.25 1.12 1.06.64 1.17.2 1-4.79 5.43-13.19 11.63-16.52a33.92 33.92 0 0 1 4.69-1.76c1.46-.6 3-1 4.51-1.49 1.18-.39 2.36-.84 3.54-1.23a22.85 22.85 0 0 0 2.2-1c1.05-.48 2.11-1 3.13-1.52a22.48 22.48 0 0 1 2.06-1.09c.76-.27 1.61-.27 2.43-.49.94 0 1.92-.3 2.9-.3.77 0 1.55-.2 2.34-.2h.15a6.11 6.11 0 0 1 2-.24 21.83 21.83 0 0 1 4.83.41 41 41 0 0 1 5.69 3l-.15-2.28-4.95-2.17 5.27-2.75v-2.61c0 .46-5.14 3.75-7.47 4.25a27.37 27.37 0 0 1 -3.48.44c-1.14 0-2.29.23-3.43.23a7.84 7.84 0 0 1 -2.26-.29c-.15 0-.22 0-.23-.27a2.68 2.68 0 0 1 .58-1.75c.64-.89 1.31-1.73 2-2.61.33-.42 3.16-3.4 4.21-4.51-1 0-2 .23-3 .23a18.49 18.49 0 0 1 -2.26 2.93 22.47 22.47 0 0 1 -3.54 3.84 31.28 31.28 0 0 1 -3.69 3.07 43.78 43.78 0 0 1 -8.06 3.55c-.51.18-1.69.53-1.76.53a47.18 47.18 0 0 0 -4.86 1.64c-1.35.55-2.71.94-4.05 1.49a22.43 22.43 0 0 0 -3.83 1.91 16.76 16.76 0 0 0 -2.35 2.19 11.07 11.07 0 0 0 -1.61 2c-.47.72-1 1.42-1.49 2.11-.06.22-.11.23-.24.23s-.06-.26-.06-.26v-2.08a23.07 23.07 0 0 1 .18-3.52c.18-1.11.47-2.2.73-3.31a6 6 0 0 1 2.43-3.54 14.06 14.06 0 0 1 3.23-1.7 22.77 22.77 0 0 0 5.36-3 41.84 41.84 0 0 1 4.42-2.29c2.89-1.22 7.4-4.67 9.23-5.12.26-.06-2.75.32-3.13.32-.7.07-4.71 2.58-5.34 2.9-1.32.66-2.88 1.6-2.63.88a19.05 19.05 0 0 1 1.08-2.17c.22-.43.49-.87.73-1.29h-.79c-.13.21-.26.46-.41.7a19.93 19.93 0 0 1 -1.26 2.11 13.55 13.55 0 0 1 -2.66 2.46 19.29 19.29 0 0 1 -4.31 2.38 37.93 37.93 0 0 0 -3.46 1.67h-.17s0-.24.06-.24c1-1.37 1.83-2.88 2.92-4.16a24.81 24.81 0 0 1 4.25-4.07c.39-.25.76-.52 1.15-.76h-1.7c-.54 0-2.66 2-3.2 2-.34 0 .93-1.9.59-1.9h-1.2a1.3 1.3 0 0 0 -.32.41c-1.26 1.59-2.56 3.17-3.67 4.83a28.86 28.86 0 0 0 -2.52 3.81 8.58 8.58 0 0 1 .24-2.32 19.35 19.35 0 0 1 1.23-3.28 14.17 14.17 0 0 1 2.17-3.37h-2c-.65 1.18-1.29 2.35-1.85 3.58-.07.16-.35.88-.53 1.43a18.27 18.27 0 0 0 -.73 3.2 6 6 0 0 0 -.06.76 6.65 6.65 0 0 0 0-.76 17.81 17.81 0 0 0 -.76-3.2c-.18-.55-.42-1.21-.5-1.43-.54-1.22-1.21-2.41-1.87-3.58h-2.05a14.17 14.17 0 0 1 2.17 3.37 18 18 0 0 1 1.23 3.28 7.1 7.1 0 0 1 .23 2.32 27 27 0 0 0 -2.52-3.81c-1.09-1.69-2.38-3.24-3.63-4.83a1.34 1.34 0 0 1 -.35-.41h-1.2c-.35 0 1 1.9.61 1.9-.53 0-2.68-2-3.22-2h-1.7c.39.24.79.49 1.17.76a24.81 24.81 0 0 1 4.25 4.07c1.1 1.31 1.91 2.8 2.9 4.16 0 0 0 .24.09.24h-.21c-1.14-.56-2.27-1.19-3.46-1.67a21 21 0 0 1 -4.3-2.38 12.77 12.77 0 0 1 -2.67-2.46 18.67 18.67 0 0 1 -1.26-2.11c-.14-.19-.26-.46-.41-.7h-.79c.26.42.5.85.73 1.29.34.74.84 1.42 1.12 2.17s-1.33-.22-2.67-.88c-.62-.32-4.64-2.9-5.33-2.9-.39 0-3.37-.32-3.11-.32 1.83.46 6.31 3.89 9.2 5.12a34.65 34.65 0 0 1 4.46 2.29 23.56 23.56 0 0 0 5.33 3 14.81 14.81 0 0 1 3.22 1.7 6 6 0 0 1 2.46 3.54c.25 1.11.55 2.2.73 3.31a20.82 20.82 0 0 1 .18 3.52v2.08s.06.26-.06.26-.16-.23-.23-.23c-.53-.7-1-1.39-1.53-2.11a11.83 11.83 0 0 0 -1.61-2 15.18 15.18 0 0 0 -2.34-2.19 23 23 0 0 0 -3.81-1.91c-1.33-.57-2.72-1-4.07-1.49-.75-.3-4.73-1.64-4.84-1.64a7.35 7.35 0 0 1 -1.75-.53 43.47 43.47 0 0 1 -8.09-3.55 32.47 32.47 0 0 1 -3.8-3.08 22.54 22.54 0 0 1 -3.55-3.84 17.5 17.5 0 0 1 -2.25-2.93c-1 0-2-.23-3-.23zm-5.1.58a6.24 6.24 0 0 0 -1.58.32c-.31.12-.37.31-.21.56a9.33 9.33 0 0 0 .75 1.53 5.09 5.09 0 0 0 2 2.08c1.4.63 2.89.38 4.36.38.21 0 .29-.09.15-.32-.59-.86-1.15-1.78-1.79-2.63-1.17-1.56-2.27-2.13-3.72-1.91zm95.68 0c-1.45-.15-2.55.32-3.72 1.88-.64.84-1.18 1.76-1.78 2.63-.14.32-.06.32.14.32a9.11 9.11 0 0 0 4.37-.38 5 5 0 0 0 2-2.08 8.33 8.33 0 0 0 .82-1.55c.15-.25.12-.53-.2-.53a10.91 10.91 0 0 0 -1.59-.32zm-81.12.44v.06a3.22 3.22 0 0 0 -1.58.82c-.14.1-.12.32 0 .32.3.21.51.45.82.68a2.91 2.91 0 0 0 1.58.64 5.69 5.69 0 0 0 2.49-.85c.11 0 .14-.2 0-.2-.54-.36-1.05-.71-1.61-1a2.84 2.84 0 0 0 -1.73-.44zm66.56 0a2.52 2.52 0 0 0 -1.72.44c-.55.29-1.07.65-1.62 1-.13 0-.09.23 0 .23a5.73 5.73 0 0 0 2.52.85 3 3 0 0 0 1.59-.7c.3-.12.5-.45.79-.68.14-.07.16-.09 0-.32a2.6 2.6 0 0 0 -1.56-.79zm-61.64 3.16a3.37 3.37 0 0 0 -2.9 1.56c-.16.18-.12.21.09.44.44.22.79.67 1.2.67a3.52 3.52 0 0 0 2.23.53 7 7 0 0 0 3.05-1.64c.13 0 .15-.27 0-.27-.79-.33-1.54-.71-2.35-1a10.14 10.14 0 0 0 -1.29-.3zm56.72 0a3.41 3.41 0 0 0 -1.29.3c-.8.3-1.55.68-2.34 1-.18 0-.16.27 0 .27a7.65 7.65 0 0 0 3.08 1.64 3.91 3.91 0 0 0 2.19-.53 6 6 0 0 0 1.2-.67c.22-.11.25-.22.09-.44a3.59 3.59 0 0 0 -2.9-1.56zm-6.5 3a3.64 3.64 0 0 0 -1.47.27c-.8.24-1.53.62-2.31.9-.23 0-.45.24-.68.24-.07.22-.13.23-.14.23 0 .23 0 .24.09.24.56.31 1.06.77 1.61 1.11a7 7 0 0 0 2 .88 5.22 5.22 0 0 0 2.93-.26 10.93 10.93 0 0 0 1.9-.91c.07-.23.14-.21.21-.21s.2-.21 0-.44a6.08 6.08 0 0 0 -2.67-1.75 3.3 3.3 0 0 0 -1.46-.24v-.06zm-43.68.06v.09a3.59 3.59 0 0 0 -1.5.23 6.43 6.43 0 0 0 -2.63 1.76c-.18.14-.19.22 0 .44s.16.21.23.21a11.76 11.76 0 0 0 1.9.9 5.39 5.39 0 0 0 2.93.27 6.1 6.1 0 0 0 1.94-.88c.54-.36 1-.78 1.61-1.11.05 0 .13-.24.12-.24 0-.22-.08-.23-.15-.23s-.48-.24-.7-.24c-.78-.31-1.52-.7-2.32-.94-.48 0-1-.26-1.43-.26zm36.71 3a3.33 3.33 0 0 0 -1.53.23 16.15 16.15 0 0 0 -2.49 1.18c-.13 0-.21 0 0 .26a10.2 10.2 0 0 0 2.79 1.61 1.06 1.06 0 0 0 .79.23 3.9 3.9 0 0 0 1.87-.55 7.39 7.39 0 0 0 1.2-.73c.18-.14.32-.31.09-.53a4 4 0 0 0 -2.69-1.52v-.18zm-29.77.17v.12a4.27 4.27 0 0 0 -2.7 1.55c-.23.21-.06.31.12.53a7.57 7.57 0 0 0 1.2.76 4 4 0 0 0 1.85.56 1.09 1.09 0 0 1 .79-.23 9.93 9.93 0 0 0 2.78-1.62c.19 0 .11-.26 0-.26a15.22 15.22 0 0 0 -2.49-1.17 3.31 3.31 0 0 0 -1.52-.24zm-24.49 2.58a5.18 5.18 0 0 0 -3.75 1.23c-.31.27-.29.34.06.56a5.28 5.28 0 0 0 2.84.88 4.2 4.2 0 0 0 1.64-.32c.81-.33 1.48-.87 2.31-1.17.06-.23.11-.24.09-.24h-.15a6.56 6.56 0 0 1 -1.67-.61 5.15 5.15 0 0 0 -1.37-.36zm78.78 0a3.61 3.61 0 0 0 -1.38.33 5 5 0 0 1 -1.7.61h-.12c0 .23 0 .24.06.24.84.28 1.54.82 2.35 1.14a7.81 7.81 0 0 0 1.64.32 5.42 5.42 0 0 0 2.84-.85c.34-.22.36-.3.06-.55a4.85 4.85 0 0 0 -3.75-1.24zm-33.61 1c-.14 0-.17 0-.11.23a5.33 5.33 0 0 0 1.58 2.14 2.89 2.89 0 0 0 1.67.33c.32.22.7 0 1.05 0 .16 0 .26 0 .21-.27a2.57 2.57 0 0 0 -2.46-2.23h-1.94zm-11.6.2v.18h-1.9c-1.56.14-2.07.86-2.46 2.23-.05.27 0 .26.2.26h1a2.84 2.84 0 0 0 1.67-.32 5.59 5.59 0 0 0 1.58-2.14c.09-.22.07-.2-.09-.2zm-42.8.59a2.44 2.44 0 0 0 -1.28.21 6.7 6.7 0 0 0 -2 .93c-.32.21-.34.31 0 .53a7 7 0 0 0 3.05 1.26 5.15 5.15 0 0 0 2.54-.44c.63-.22 1.21-.51 1.88-.73.06-.23.12-.24.12-.24h-.06c-1-.27-1.92-1-3-1.29a2.67 2.67 0 0 0 -1.29-.2zm97.21 0a2.68 2.68 0 0 0 -1.29.23c-1 .29-1.9 1-2.93 1.26h-.09c0 .23 0 .24.12.24a11.5 11.5 0 0 1 1.87.73 9.5 9.5 0 0 0 2.55.47 6.17 6.17 0 0 0 3.05-1.29c.31-.24.3-.33 0-.56a8.11 8.11 0 0 0 -2-.9 2.57 2.57 0 0 0 -1.29-.21zm-80.89 1.08a6.43 6.43 0 0 0 -4.54 2c-.37.31-.34.43.11.67a6 6 0 0 0 3.69.79 5.2 5.2 0 0 0 2-.61c1-.48 1.78-1.31 2.78-1.73.07 0 .12-.21.09-.21h-.15a7.49 7.49 0 0 1 -2.23-.58 4.06 4.06 0 0 0 -1.78-.27zm64.57.09a5 5 0 0 0 -1.79.27 7 7 0 0 1 -2.2.58h-.18c0 .23 0 .24.09.24 1 .44 1.8 1.22 2.78 1.7a5.25 5.25 0 0 0 2 .61 6.64 6.64 0 0 0 3.69-.73c.47-.18.48-.35.12-.68a6.61 6.61 0 0 0 -4.51-1.95zm-58 2.67a3.46 3.46 0 0 0 -1.32.32 6.45 6.45 0 0 0 -3 2.75c-.15.24-.11.25.11.47s.18.24.27.24c.65.27 1.36.3 2 .52h.44a5.36 5.36 0 0 0 3.51-.61 12.55 12.55 0 0 0 2.87-2.81s.1-.21.06-.21h-.17a3.71 3.71 0 0 1 -1.5-.26 11.78 11.78 0 0 0 -1.93-.32h-1.35zm51.53.09v.08h-1.37a8.16 8.16 0 0 0 -1.91.36 3.3 3.3 0 0 1 -1.52.23h-.18c0 .22 0 .23.06.23a12.47 12.47 0 0 0 2.87 2.79 5.13 5.13 0 0 0 3.55.61h.44a10.16 10.16 0 0 0 2-.52c.1-.23.18-.21.26-.21.24-.13.3-.26.15-.5a6.74 6.74 0 0 0 -3.08-2.75 5.19 5.19 0 0 0 -1.29-.32zm-69.7.28a5.55 5.55 0 0 0 -2.85.59 6.89 6.89 0 0 0 -2 1.52c-.18.19-.22.41-.15.41a.24.24 0 0 0 .24.32 6.13 6.13 0 0 0 3.19.59h.5a6.3 6.3 0 0 0 2.67-1.17 13.91 13.91 0 0 1 1.87-1.26c.07 0 .13-.24.12-.24h-.12c-1.21-.06-2.31-.73-3.51-.73zm87.74 0v.12c-1.22.06-2.33.67-3.55.67h-.11c0 .23.06.21.11.21a14.46 14.46 0 0 1 1.88 1.28 7.27 7.27 0 0 0 2.7 1.15h.49a6.35 6.35 0 0 0 3.17-.56c.24-.09.33-.13.26-.35.09-.11 0-.19-.15-.41a7 7 0 0 0 -2-1.5 7.15 7.15 0 0 0 -2.84-.61zm-29.74 2.1c-.06.22 0 .23 0 .23a12.25 12.25 0 0 0 2.23 3.29 6.26 6.26 0 0 0 3.31 1.31h.46a3.13 3.13 0 0 0 2.05 0h.29c.25-.07.34-.21.24-.47a6.59 6.59 0 0 0 -2.4-3.22 4.5 4.5 0 0 0 -2.55-.82h-1.94c-.49.23-1 0-1.49 0v-.32zm-28.35.32v.27h-3.46a5.12 5.12 0 0 0 -2.52.85 6.38 6.38 0 0 0 -2.43 3.22c-.09.25 0 .5.23.5h2.81a5.28 5.28 0 0 0 3.28-1.32 12.88 12.88 0 0 0 2.26-3.28s0-.24 0-.24zm-21 .29c-.82.29-1.71 0-2.55.27a10.63 10.63 0 0 0 -2.14.53 5.05 5.05 0 0 0 -2 1.75 7.13 7.13 0 0 0 -.88 1.85c-.12.34-.07.59.38.59h2.08a5.37 5.37 0 0 0 3-1.18 6.12 6.12 0 0 0 1.58-2.19 13.88 13.88 0 0 0 .62-1.35c0-.23.09-.24-.09-.24zm70.46 0c-.19 0-.18 0-.12.24a13.69 13.69 0 0 0 .62 1.35 6.23 6.23 0 0 0 1.61 2.19 6 6 0 0 0 3 1.17h2.05c.47-.06.53-.13.39-.55a7.33 7.33 0 0 0 -.88-1.88 4.66 4.66 0 0 0 -2-1.75c-.69-.27-1.41-.28-2.13-.5a11.89 11.89 0 0 1 -2.52-.3zm-26.11 1.21s0 .23 0 .23a9.61 9.61 0 0 0 .87 3 4.17 4.17 0 0 0 2.13 1.75.29.29 0 0 0 .33.2 4.81 4.81 0 0 0 1.55.44h.23c.2 0 .32 0 .3-.26a5.28 5.28 0 0 0 -1-3 4 4 0 0 0 -1.7-1.23c-.46-.18-.91-.27-1.41-.5a3.49 3.49 0 0 1 -1.11-.41h-.19zm-18.16.2v.21h-.15a8 8 0 0 0 -1.11.41 7 7 0 0 0 -1.41.52 4.12 4.12 0 0 0 -1.69 1.23 4.91 4.91 0 0 0 -1 3c0 .27.06.27.26.27h.21a6.75 6.75 0 0 0 1.58-.44.31.31 0 0 1 .32-.24 4.4 4.4 0 0 0 2.14-1.78 9.82 9.82 0 0 0 .88-3c-.04-.2-.03-.18-.07-.18zm38.26 1.29c-.27 0-.35.1-.23.38.2.52.41 1.06.64 1.58a3.76 3.76 0 0 0 2.35 2.08 6.85 6.85 0 0 0 2.57.33h.68c.53 0 .62-.15.53-.68a3.9 3.9 0 0 0 -3.17-3.28c-1.15-.16-2.29-.18-3.41-.41zm-58.36 0c-1.11.15-2.22.13-3.34.38a4 4 0 0 0 -3.19 3.31c-.1.44 0 .65.56.65h.67a10.32 10.32 0 0 0 2.58-.33 3.57 3.57 0 0 0 2.28-2.08c.26-.54.46-1 .68-1.55.1-.37 0-.38-.24-.38zm5 5.1a14.42 14.42 0 0 0 -2.69.32 24.12 24.12 0 0 0 -2.67.79 10.53 10.53 0 0 0 -1.26.53c-.41.21-.81.34-1.2.58s-.82.44-1.2.68l-1.14.73a20.26 20.26 0 0 0 -2.2 1.58l-1 .88c-.34.3-.63.59-1 .91-.66.59-1.23 1.27-1.85 1.93s-1.15 1.38-1.73 2.05-1.06 1.42-1.58 2.14c-.46.89-1 1.7-1.4 2.58s-.86 1.74-1.23 2.64-.76 1.79-1.12 2.72c-.18.44-.34.9-.5 1.35s-.33.94-.46 1.38c-.3.92-.58 1.89-.82 2.84s-.46 1.89-.65 2.84a36.48 36.48 0 0 0 -.73 5.74c.17-1 .41-1.91.61-2.84s.47-1.85.77-2.78.59-1.83.9-2.73.61-1.81 1-2.69c.15-.44.38-.89.56-1.32s.35-.89.55-1.32c.41-.84.79-1.72 1.23-2.58.21-.42.42-.87.65-1.26l.64-1.26c.45-.84.94-1.65 1.41-2.46l1.55-2c.56-.65 1.11-1.36 1.7-2s1.16-1.28 1.79-1.85 1.23-1.15 1.87-1.7 1.36-1 2-1.52l1.06-.68 1.08-.61c.37-.23.77-.33 1.14-.56s.78-.27 1.18-.5a15.45 15.45 0 0 1 2.37-.82 10.91 10.91 0 0 1 2.46-.41h2.52a11.65 11.65 0 0 1 2.49.33 17.84 17.84 0 0 1 2.49.64 19.11 19.11 0 0 1 2.31 1 16.08 16.08 0 0 1 2.23 1.31 16.61 16.61 0 0 1 2 1.67 8.75 8.75 0 0 1 1.53 2.06 7.72 7.72 0 0 0 -1.32-2.29 17.87 17.87 0 0 0 -4-3.49 24 24 0 0 0 -2.37-1.23 26.28 26.28 0 0 0 -2.55-.85 10.14 10.14 0 0 0 -2.66-.49h-2.73v-.06zm48.67.06v.05a11.33 11.33 0 0 0 -2.73 0 17.85 17.85 0 0 0 -2.66.5 17.41 17.41 0 0 0 -2.55.88 23.13 23.13 0 0 0 -2.38 1.23 15.72 15.72 0 0 0 -2.16 1.58 17.56 17.56 0 0 0 -1.88 1.88 7.93 7.93 0 0 0 -1.35 2.31 7.92 7.92 0 0 1 1.55-2.05 20.94 20.94 0 0 1 2-1.67 17.71 17.71 0 0 1 2.22-1.31 18.23 18.23 0 0 1 2.32-1c.81-.27 1.63-.42 2.46-.65a24.45 24.45 0 0 1 2.52-.32h2.49a19.58 19.58 0 0 1 2.49.41 19.82 19.82 0 0 1 2.4.79 6.37 6.37 0 0 1 1.14.5c.39.2.76.33 1.12.56l1.11.61 1.08.68c.69.52 1.38 1 2 1.55s1.27 1.07 1.87 1.67 1.2 1.25 1.79 1.85 1.14 1.27 1.7 1.93l1.55 2c.46.83 1 1.59 1.41 2.43l.64 1.26c.24.38.45.84.67 1.26.44.83.82 1.73 1.21 2.58.2.44.36.91.55 1.35s.39.87.56 1.32c.35.86.66 1.76 1 2.66s.64 1.86.91 2.76.53 1.83.76 2.75.46 1.9.62 2.84a38.08 38.08 0 0 0 -.73-5.77c-.19-.95-.4-1.9-.65-2.84s-.52-1.86-.82-2.79c-.14-.46-.3-.91-.47-1.37s-.31-.92-.49-1.35c-.37-.91-.72-1.84-1.12-2.7s-.83-1.78-1.26-2.66-.92-1.69-1.37-2.58c-.53-.7-1.05-1.46-1.58-2.14s-1.12-1.39-1.73-2.05-1.19-1.3-1.85-1.9c-.33-.33-.63-.64-1-.94l-1-.88a22.16 22.16 0 0 0 -2.14-1.61l-1.17-.73c-.41-.24-.8-.42-1.2-.65s-.81-.39-1.23-.61-.82-.25-1.26-.47a16.76 16.76 0 0 0 -2.77-.72 20.41 20.41 0 0 0 -2.69-.35zm-29.21 9.25v.15s0 .17 0 .44l.06.2a29.57 29.57 0 0 0 3.72 5.07h.02c.1 0 .16-.29.24-.29a31.73 31.73 0 0 1 -4-5.3l-.11-.27zm9.72.24v.23l-.11.27c-1 2.39-4.72 5.79-6.71 7.76-.23.24-.47.45-.68.67a7.9 7.9 0 0 0 -2.4 3.46h-.02c0 .23 0 .21.06.21h.06l.06-.21a8.35 8.35 0 0 1 2.19-2.93 1.57 1.57 0 0 0 .47-.41l.21-.23c2-2 5.74-5.44 6.79-7.88l.09-.24c0-.21-.06-.44-.06-.44v-.26zm-10.28 13.33v.17s0 .23-.06.62l.09.23a32.63 32.63 0 0 0 4.07 5.34h.12c.06 0 .11-.24.17-.24.05-.22.12-.23.18-.23a33.93 33.93 0 0 1 -4.42-5.66zm10.37 0v.17l-.12.24a41.89 41.89 0 0 1 -7 8.23 8.37 8.37 0 0 0 -.7.62 7.65 7.65 0 0 0 -2.78 3.75h.17l.06.23.06-.23a7.84 7.84 0 0 1 2.49-3 6.82 6.82 0 0 0 .58-.53l.15-.2a43.53 43.53 0 0 0 7.06-8.35h.02l-.06-.68v-.23zm.5 14a50.24 50.24 0 0 1 -7.65 8.26c-1.69 1.46-2.87 2.13-3.57 4.34.07 0 .11.23.17.23a8.4 8.4 0 0 1 2.61-3c.22-.21.47-.36.7-.59a49.89 49.89 0 0 0 7.74-8.35c0-.51 0-.82 0-.82zm-11.31.06v.06s0 .34 0 .85a41.81 41.81 0 0 0 4.45 5.21 2.29 2.29 0 0 0 .44-.44 43.85 43.85 0 0 1 -4.95-5.65zm11.51 14.27a60 60 0 0 1 -8 8.38c-1.72 1.48-2.92 2.18-3.58 4.42.08 0 .15.26.24.26a8.23 8.23 0 0 1 2.54-2.95c.22-.18.47-.34.71-.56a61.39 61.39 0 0 0 8.08-8.47c0-.63-.06-1-.06-1v-.06zm-11.89.09s0 .39 0 1a48.36 48.36 0 0 0 4.66 5.22c.17-.21.34-.34.53-.56a52.25 52.25 0 0 1 -5.25-5.63zm.09 14s0 .51 0 1.23a58.19 58.19 0 0 0 4.54 5.13c.18-.18.4-.36.61-.59a60.53 60.53 0 0 1 -5.12-5.77zm14 11.1c.84.21 1.34 1.56-.32 11.16-.45 2.64 1.35 5.73-.73 8.09a18.6 18.6 0 0 1 -6.86 1.17 19.16 19.16 0 0 1 -6.59-1.08c-2.2-2.37-.42-5.51-.88-8.18-1.56-9-1.22-10.78-.47-11.13a7.11 7.11 0 0 0 2.55 1.47 21.47 21.47 0 0 0 5.36.82 16.56 16.56 0 0 0 4.6-.59 10.84 10.84 0 0 0 3.34-1.76zm-1.08 19.63 1 18.08-7.83 7.82-7.68-7.67 1.15-17.93c1.24 1 3.65 1.75 6.5 1.75 3.09 0 5.72-.85 6.83-2z" fill="#d4be29"/></svg>