<svg clip-rule="evenodd" fill-rule="evenodd" stroke-linejoin="round" stroke-miterlimit="2" viewBox="0 0 360 360" xmlns="http://www.w3.org/2000/svg" xmlns:xlink="http://www.w3.org/1999/xlink"><clipPath id="a"><path clip-rule="evenodd" d="m0 0h360v360h-360z"/></clipPath><path d="m0 0h360v360h-360z" fill="none"/><g clip-path="url(#a)"><path d="m180 0c99.345 0 180 80.655 180 180s-80.655 180-180 180-180-80.655-180-180 80.655-180 180-180zm-35.449 243.462h11.804c1.269-11.933 11.379-21.241 23.645-21.241s22.376 9.308 23.645 21.241h11.804c-1.303-18.432-16.688-33-35.449-33s-34.146 14.568-35.449 33zm88.757-126.924h-4.231c0 18.853-11.823 35.052-28.769 42.373-6.194 2.676-13.073-3.139-20.308-3.139s-14.114 5.815-20.308 3.139c-16.946-7.321-28.769-23.52-28.769-42.373h-4.231c0 28.021 23.887 50.77 53.308 50.77s53.308-22.749 53.308-50.77zm-15.231 0h-3.808c0 16.273-15.493 29.193-34.269 29.193s-34.269-12.92-34.269-29.193h-3.808c0 18.214 17.062 33 38.077 33s38.077-14.786 38.077-33zm-15.231 0h-3.384c0 9.203-8.843 16.416-19.462 16.416s-19.462-7.213-19.462-16.416h-3.384c0 10.928 10.237 19.8 22.846 19.8s22.846-8.872 22.846-19.8zm-71.907 126.924h9.081c1.311-20.929 18.723-37.521 39.98-37.521s38.669 16.592 39.98 37.521h9.081c-1.323-25.936-22.799-46.588-49.061-46.588s-47.738 20.652-49.061 46.588zm64.292-71.562c-9.466 2.135-15.231 15.715-15.231 15.715s-5.765-13.58-15.231-15.715c-26.711-6.023-46.538-27.676-46.538-55.362h-4.231c0 23.47 13.279 43.981 33 54.961 4.514 2.513 7.618 4.783 7.615 8.501 0 .231.027.458.08.683l-.001.002c-.052.196-.079.406-.079.631 0 2.579-1.42 4.194-5.401 6.299-20.232 10.7-34.247 31.608-35.166 55.847h11.77c1.328-28.76 25.097-51.702 54.182-51.702s52.854 22.942 54.182 51.702h11.77c-.919-24.239-14.934-45.147-35.166-55.847-3.981-2.105-5.401-3.72-5.401-6.299 0-.225-.027-.435-.079-.631l-.001-.002c.053-.225.08-.452.08-.683-.003-3.718 3.101-5.988 7.615-8.501 19.721-10.98 33-31.491 33-54.961h-4.231c0 27.686-19.827 49.339-46.538 55.362z" fill="#274877"/></g></svg>