<svg viewBox="0 0 360 360" xmlns="http://www.w3.org/2000/svg" xmlns:xlink="http://www.w3.org/1999/xlink"><clipPath id="a"><path d="m0 0h360v360h-360z"/></clipPath><g clip-path="url(#a)"><g clip-path="url(#a)"><path d="m180 0a180 180 0 1 0 180 180 180 180 0 0 0 -180-180m18.06 198.83c-.12-7.16-4.64-16.6-12.11-26.17 1.53 11.93 5 21.69 10 26.79l-16.39 62.42-16.39-62.42c4.95-5.1 8.45-14.86 10-26.79-7.47 9.57-12 19-12.12 26.17l-55.81 32.4 32.7-55.64c9-.1 21.61-7.11 33.56-18.2a119.07 119.07 0 0 0 -28.8-18.93l1.55-16.31 16.31-1.64a113.81 113.81 0 0 0 12.16 20.23 114.76 114.76 0 0 0 -5.8-23.15l12.66-10.4 12.66 10.4a114.12 114.12 0 0 0 -5.81 23.15 113.27 113.27 0 0 0 12.17-20.23l16.3 1.64 1.56 16.31a118.87 118.87 0 0 0 -28.8 18.93c11.95 11.09 24.57 18.1 33.56 18.2l32.69 55.64z" fill="#6e4cac"/></g></g></svg>